<?xml version="1.0" standalone="no"?>
<!DOCTYPE svg PUBLIC "-//W3C//DTD SVG 20010904//EN"
 "http://www.w3.org/TR/2001/REC-SVG-20010904/DTD/svg10.dtd">
<svg version="1.0" xmlns="http://www.w3.org/2000/svg"
 width="813.000000pt" height="751.000000pt" viewBox="0 0 813.000000 751.000000"
 preserveAspectRatio="xMidYMid meet">

<g transform="translate(0.000000,751.000000) scale(0.100000,-0.100000)"
fill="#000000" stroke="none">
<path d="M3908 5445 c-57 -15 -111 -48 -138 -82 -16 -21 -20 -39 -19 -97 2
-120 14 -144 22 -47 9 100 25 131 83 160 121 58 403 47 613 -26 94 -32 138
-59 185 -115 37 -43 106 -169 106 -194 0 -8 7 -14 16 -14 45 0 -38 179 -123
267 -77 79 -194 125 -388 152 -102 15 -299 12 -357 -4z"/>
<path d="M2863 5080 c-83 -19 -193 -119 -193 -174 0 -53 -25 -132 -61 -193
-21 -36 -92 -116 -185 -208 -200 -200 -270 -313 -339 -550 -14 -50 -30 -94
-35 -99 -17 -17 -11 94 10 176 53 210 118 316 317 516 111 112 150 158 174
207 17 35 29 69 27 76 -5 16 -112 -79 -193 -173 -36 -42 -77 -84 -91 -93 -53
-34 -314 -472 -314 -526 0 -12 -13 -63 -30 -114 -95 -297 -126 -876 -64 -1215
46 -259 142 -543 219 -656 52 -75 100 -99 203 -99 l83 0 22 34 c11 19 23 29
25 22 2 -6 -1 -17 -7 -24 -25 -31 -132 -396 -124 -426 5 -21 98 -67 203 -102
73 -24 74 -23 90 61 7 30 16 69 21 85 5 17 23 79 39 139 17 60 32 112 35 114
9 10 5 -22 -11 -78 -82 -298 -95 -441 -42 -497 34 -37 134 -107 205 -142 34
-18 65 -36 68 -41 4 -6 13 -10 21 -10 25 0 7 38 -57 118 -33 41 -65 86 -72
100 -19 38 -15 136 6 160 10 11 17 35 17 59 0 39 9 59 85 202 l30 54 17 -76
c10 -43 25 -91 34 -108 41 -80 150 -168 292 -239 155 -76 298 -116 602 -169
148 -26 200 -31 342 -31 523 0 884 141 1008 394 23 46 30 74 28 102 l-3 39
-14 -30 c-38 -88 -59 -121 -112 -172 -146 -145 -363 -217 -731 -244 -194 -14
-348 -5 -588 37 -204 35 -328 68 -454 122 -260 110 -365 231 -354 405 5 82 46
166 112 232 69 69 149 106 320 150 82 21 121 25 237 25 153 0 164 5 140 57
-12 25 -13 26 -89 19 -42 -4 -101 -15 -131 -24 l-54 -17 -21 30 c-39 54 -101
118 -138 141 -20 13 -84 40 -143 60 -93 32 -117 36 -198 35 -119 -1 -189 -13
-268 -46 -133 -56 -237 -153 -326 -302 -31 -51 -59 -96 -64 -99 -18 -10 -214
269 -270 384 -39 80 -41 88 -41 180 0 213 84 399 258 569 l83 81 -64 67 c-48
49 -76 91 -113 168 -62 128 -75 183 -75 322 0 121 15 187 66 292 57 118 191
252 307 307 60 29 73 31 171 31 100 0 108 -2 174 -35 92 -47 156 -112 202
-208 33 -69 38 -87 41 -173 4 -90 3 -98 -27 -156 -32 -65 -86 -115 -155 -147
-45 -20 -156 -32 -209 -22 -87 16 -187 158 -187 266 0 106 38 172 122 214 122
61 233 7 240 -115 4 -54 -13 -66 -27 -20 -5 19 -24 50 -41 68 -44 46 -99 46
-156 1 -89 -70 -102 -180 -34 -280 75 -112 266 -81 367 60 32 44 34 52 33 124
0 65 -5 86 -33 142 -38 78 -92 135 -158 167 -40 20 -63 24 -138 24 -78 0 -97
-4 -147 -28 -114 -56 -255 -217 -298 -339 -10 -29 -24 -91 -30 -137 -25 -182
34 -345 178 -493 44 -46 66 -58 74 -40 2 5 36 28 76 51 39 24 72 46 72 50 0 4
-19 18 -41 31 -64 35 -155 132 -190 202 -55 109 -50 259 13 386 26 52 99 132
105 115 2 -6 -11 -42 -30 -80 -48 -96 -67 -169 -67 -260 0 -95 19 -142 85
-212 38 -41 133 -112 192 -145 25 -14 132 59 323 219 58 49 129 104 159 123
57 37 276 117 292 107 15 -10 10 -38 -11 -70 -28 -42 -26 -53 21 -125 85 -132
210 -219 369 -258 49 -12 76 -24 78 -34 4 -19 -53 -68 -78 -68 -43 0 -241 97
-299 146 -50 43 -102 124 -116 183 -25 95 -46 30 -25 -74 31 -149 151 -290
273 -319 16 -4 27 -12 25 -18 -3 -9 -63 -46 -137 -84 -10 -5 -38 17 -90 72
-123 130 -189 208 -201 239 -6 16 -14 24 -19 19 -12 -12 -51 -184 -51 -224 0
-57 24 -27 36 44 6 37 15 71 20 76 7 7 33 -17 75 -65 35 -41 94 -99 132 -130
49 -41 67 -63 67 -80 0 -15 9 -29 23 -36 12 -6 34 -23 49 -36 l26 -25 59 59
c107 109 138 115 138 27 0 -38 -2 -44 -16 -41 -19 5 -56 -30 -84 -79 -18 -31
-18 -32 10 -68 15 -20 29 -36 32 -36 11 0 33 30 33 44 0 9 18 27 40 41 22 14
40 31 40 39 0 18 22 26 71 26 21 0 39 2 39 5 0 3 -15 19 -34 36 -44 38 -79
109 -71 142 4 14 22 44 42 66 32 38 39 41 84 41 52 0 64 -16 35 -49 -23 -27
-36 -81 -36 -151 0 -76 4 -80 70 -80 44 0 64 -16 80 -65 6 -19 15 -35 20 -35
12 0 51 -87 103 -230 25 -69 53 -140 62 -157 26 -51 110 -138 178 -183 50 -34
67 -40 92 -36 51 11 49 22 -8 64 -101 75 -157 169 -183 309 -25 136 -50 213
-89 278 -49 81 -89 121 -152 150 -57 26 -73 46 -53 70 26 31 154 6 210 -42 34
-28 85 -121 105 -192 8 -25 23 -95 35 -156 37 -195 51 -228 165 -387 64 -91
72 -98 103 -98 40 0 41 -7 -14 125 -29 71 -39 110 -45 184 -10 119 -37 292
-54 352 -18 65 -69 160 -100 189 -14 14 -45 34 -68 45 -51 25 -55 36 -18 58
34 20 68 22 73 5 5 -13 99 53 148 104 45 46 88 142 96 210 4 32 10 58 14 58 4
0 19 -9 34 -21 15 -12 37 -19 53 -18 16 2 50 -4 77 -12 37 -11 54 -22 71 -50
13 -20 38 -48 55 -63 35 -29 90 -60 90 -51 0 4 -26 35 -57 70 -31 35 -70 89
-87 122 -17 32 -39 69 -49 83 -15 22 -17 38 -11 120 8 112 -10 191 -51 230
-17 16 -25 34 -25 57 0 39 14 42 46 8 13 -14 33 -25 46 -25 19 0 30 -15 65
-90 23 -50 46 -90 51 -90 26 0 57 142 47 216 -4 32 -2 61 5 73 15 29 -10 28
-38 -2 -16 -17 -22 -38 -24 -85 -4 -81 -22 -80 -26 2 l-3 63 -57 -1 c-48 -1
-57 2 -60 18 -5 24 14 36 59 36 22 0 42 7 50 17 8 9 42 29 77 45 58 26 64 27
91 14 34 -18 44 -55 35 -132 -7 -60 10 -77 21 -21 3 17 18 81 32 140 24 99 25
113 13 155 -24 87 -25 104 -4 100 12 -2 33 -30 54 -72 37 -74 43 -124 30 -285
-3 -42 -1 -65 6 -68 13 -4 25 25 54 127 43 154 51 179 62 186 41 25 36 -199
-8 -388 -25 -108 -15 -110 49 -12 32 49 71 99 87 112 54 42 46 1 -30 -155 -89
-181 -110 -253 -110 -372 0 -49 3 -97 7 -106 5 -15 8 -15 24 6 l18 24 24 -55
c30 -68 42 -122 62 -273 15 -108 37 -203 80 -347 60 -199 67 -241 72 -425 6
-201 -6 -278 -67 -432 -61 -154 -180 -264 -302 -277 -57 -6 -66 -4 -117 26
-31 18 -99 76 -151 128 -121 122 -168 160 -255 203 -103 51 -326 113 -495 137
-79 11 -420 30 -429 23 -10 -7 26 -97 39 -101 13 -3 13 -2 0 7 -15 10 -16 10
34 25 20 6 228 -12 321 -28 44 -8 109 -17 145 -21 77 -7 235 -46 308 -74 161
-64 257 -135 393 -294 116 -135 141 -172 160 -234 l12 -42 28 22 c15 12 48 35
73 50 93 58 248 253 361 456 162 291 244 523 299 842 67 389 -15 922 -197
1285 -86 170 -303 471 -436 602 -101 99 -267 222 -300 222 -5 0 -18 -24 -30
-54 -46 -113 -115 -149 -389 -201 -128 -24 -132 -27 -132 -78 0 -43 11 -61 53
-90 17 -12 18 -19 9 -67 -9 -47 -7 -61 9 -97 20 -44 18 -68 -8 -77 -22 -9 -31
1 -26 29 7 33 -15 149 -32 172 -11 15 -13 0 -8 -97 4 -86 2 -134 -11 -190 -26
-120 -42 -173 -66 -215 -46 -80 -53 -96 -42 -107 14 -14 53 41 96 133 20 41
35 65 36 53 0 -34 -48 -184 -74 -229 -49 -83 -153 -153 -281 -191 -33 -9 -96
-33 -140 -52 -72 -33 -89 -36 -170 -36 -79 -1 -97 3 -147 27 -31 15 -71 44
-88 63 -17 20 -46 40 -64 45 -93 26 -236 255 -236 377 0 86 29 221 64 309 20
48 34 88 32 90 -3 3 -56 -76 -81 -122 -15 -28 -34 -102 -50 -204 -8 -46 -16
-85 -18 -87 -2 -3 -45 21 -95 51 -100 62 -190 142 -217 195 -26 50 -42 129
-34 172 8 54 -15 99 -100 192 -108 119 -122 156 -98 269 15 72 15 71 -40 57z
m2433 -667 c-7 -17 -27 -8 -21 10 2 7 7 26 11 42 l8 30 4 -33 c2 -19 1 -41 -2
-49z m345 -143 c-6 -22 -16 -40 -22 -40 -6 0 -8 8 -5 18 2 9 8 32 11 50 5 24
10 31 18 23 7 -7 7 -22 -2 -51z m-925 -526 c8 -73 -10 -114 -86 -197 -87 -96
-206 -132 -465 -141 -71 -2 -138 -7 -147 -11 -14 -5 -18 -2 -18 13 0 11 6 24
13 30 13 10 143 51 312 98 203 55 313 128 350 232 11 29 23 48 27 44 4 -4 11
-35 14 -68z m-646 -164 c0 -21 -35 -41 -57 -33 -25 10 -14 41 15 46 15 2 30 5
35 6 4 0 7 -8 7 -19z m-1207 -1227 c-44 -43 -101 -114 -128 -158 -31 -49 -51
-73 -53 -63 -2 9 4 32 14 50 23 45 97 148 126 175 18 17 98 66 116 72 2 1 -32
-34 -75 -76z m-146 -465 c-3 -8 -6 -5 -6 6 -1 11 2 17 5 13 3 -3 4 -12 1 -19z"/>
<path d="M4190 4979 c-43 -22 -60 -23 -96 -4 -42 22 -79 19 -192 -15 -56 -16
-114 -30 -129 -30 -36 0 -84 -30 -102 -63 -13 -24 -12 -29 4 -47 22 -24 34
-18 28 14 -7 34 23 51 140 76 54 12 117 28 140 36 24 9 56 13 75 9 30 -5 42
-19 25 -27 -5 -2 -19 -16 -33 -31 -21 -24 -22 -27 -5 -21 11 5 31 14 45 21 35
18 71 16 131 -7 61 -24 163 -90 154 -99 -4 -3 -40 -6 -82 -6 -67 0 -77 -3 -94
-24 -20 -25 -35 -68 -26 -77 3 -3 15 -1 26 6 32 17 41 4 41 -60 0 -69 12 -86
70 -94 22 -3 57 -8 78 -12 32 -4 42 -1 65 22 15 15 27 31 27 36 0 5 14 22 31
39 37 36 33 52 -28 119 -37 42 -195 160 -213 160 -13 0 -50 41 -50 56 0 56
197 -32 321 -143 23 -21 52 -60 65 -86 27 -60 42 -44 16 17 -27 60 -82 118
-164 172 -123 82 -199 100 -268 63z m217 -320 c33 -21 34 -21 48 -3 10 15 16
16 25 7 10 -9 9 -17 -4 -34 -9 -13 -16 -31 -16 -40 0 -22 -35 -52 -55 -47 -10
2 -25 25 -36 58 -31 87 -24 97 38 59z"/>
<path d="M4726 4984 c-3 -9 -6 -34 -6 -57 1 -51 16 -32 26 31 7 42 -7 59 -20
26z"/>
<path d="M6781 4879 c-19 -8 -21 -12 -11 -24 18 -22 43 -18 70 10 l23 25 -29
-1 c-16 0 -40 -5 -53 -10z"/>
<path d="M3905 4798 c-110 -38 -147 -57 -143 -76 2 -9 11 -15 19 -13 8 2 22 6
32 9 16 4 18 0 12 -31 -5 -28 -1 -49 20 -92 l26 -56 -25 -30 c-34 -40 -45
-113 -21 -139 17 -19 65 -27 78 -13 4 3 -3 11 -16 17 -17 9 -23 22 -25 55 -2
24 0 47 5 52 4 4 31 10 58 13 28 3 62 11 77 17 32 13 53 58 42 91 -4 13 -10
66 -13 118 l-6 95 -30 2 c-16 1 -57 -7 -90 -19z m94 -62 c7 -8 15 -46 18 -85
5 -60 3 -74 -12 -91 -21 -23 -55 -27 -55 -6 0 8 8 28 18 45 17 31 17 31 -10
55 -34 28 -36 59 -6 80 28 20 32 20 47 2z"/>
<path d="M4133 4489 c-16 -35 -44 -76 -61 -91 -18 -15 -32 -30 -32 -33 0 -13
63 32 96 68 19 20 38 37 43 37 5 0 14 -14 21 -30 10 -23 10 -37 2 -55 -10 -21
-9 -25 5 -25 23 0 42 30 43 68 0 26 -10 44 -44 80 l-44 46 -29 -65z"/>
<path d="M3657 4467 c-9 -30 -17 -86 -17 -126 0 -87 22 -136 77 -173 44 -30
103 -86 103 -99 0 -5 17 -27 37 -50 36 -39 36 -42 18 -55 -22 -16 -55 -64 -55
-80 0 -6 20 -1 48 12 56 28 77 29 125 9 20 -8 43 -15 52 -15 19 0 20 26 0 34
-19 7 -20 26 -1 26 8 0 17 9 21 20 6 18 32 34 90 55 19 7 18 8 -5 14 -14 4
-53 5 -88 3 -48 -3 -61 -7 -53 -16 7 -9 2 -15 -19 -23 -24 -9 -30 -9 -30 2 0
7 -8 19 -17 26 -15 13 -16 12 -11 -9 5 -19 4 -21 -8 -11 -8 6 -14 18 -14 25 0
8 -6 14 -14 14 -12 0 -30 39 -23 47 2 1 72 -3 156 -9 114 -8 159 -8 178 1 14
6 71 17 126 23 88 10 107 16 140 41 59 45 81 99 92 220 6 60 -1 69 -29 38 -14
-15 -16 -29 -11 -64 9 -60 0 -95 -33 -133 -65 -74 -139 -93 -269 -69 -48 8
-101 20 -117 25 -28 10 -29 9 -12 -9 23 -26 11 -28 -88 -19 -170 16 -283 55
-316 111 -26 42 -29 177 -4 198 14 11 18 10 30 -6 8 -10 14 -22 14 -27 0 -4 5
-8 10 -8 6 0 10 4 10 9 0 14 -60 101 -69 101 -4 0 -15 -24 -24 -53z"/>
<path d="M4020 4212 c0 -12 8 -23 21 -27 31 -10 32 -1 4 25 -25 23 -25 23 -25
2z"/>
<path d="M3970 4029 c0 -5 5 -7 10 -4 6 3 10 8 10 11 0 2 -4 4 -10 4 -5 0 -10
-5 -10 -11z"/>
<path d="M5387 3946 c-9 -13 -42 -54 -75 -92 -71 -83 -78 -96 -87 -156 -7 -44
-5 -51 31 -100 30 -40 40 -48 42 -34 2 10 -4 36 -13 57 -26 56 -15 99 45 181
76 104 107 168 81 168 -5 0 -16 -11 -24 -24z"/>
<path d="M5571 3460 c-14 -34 -90 -82 -156 -102 -22 -6 -44 -15 -50 -18 -5 -4
-46 -11 -91 -14 -78 -7 -82 -6 -113 19 -33 28 -38 27 -21 -6 6 -10 19 -19 29
-19 10 0 23 -6 29 -12 18 -22 241 -10 227 12 -2 4 6 8 19 8 60 0 149 72 159
130 8 42 -13 43 -32 2z m-228 -147 c-7 -2 -21 -2 -30 0 -10 3 -4 5 12 5 17 0
24 -2 18 -5z"/>
<path d="M5090 3214 c0 -19 -9 -81 -19 -137 -75 -394 -67 -503 56 -807 l14
-35 -6 40 c-3 22 -17 76 -30 120 -31 105 -55 235 -55 299 0 28 7 92 15 141 36
226 55 378 50 396 -10 31 -25 21 -25 -17z"/>
<path d="M3206 3119 c-8 -110 9 -148 19 -43 11 110 11 127 -1 131 -7 2 -13
-28 -18 -88z"/>
<path d="M5160 3186 c0 -13 7 -40 16 -61 l15 -37 26 23 c30 28 55 74 46 83 -4
4 -17 -6 -29 -21 -24 -30 -22 -30 -39 22 -7 25 -35 18 -35 -9z"/>
<path d="M2608 3173 c6 -2 18 -2 25 0 6 3 1 5 -13 5 -14 0 -19 -2 -12 -5z"/>
<path d="M5500 3170 c0 -5 11 -12 25 -16 19 -5 25 -13 25 -34 0 -27 -9 -41
-110 -170 -52 -67 -84 -147 -78 -197 3 -27 5 -28 59 -28 47 0 61 5 96 33 37
29 43 31 51 16 7 -13 13 -14 31 -5 58 32 56 -48 -4 -148 -46 -77 -75 -175 -57
-193 18 -18 29 0 34 51 4 38 16 66 53 120 58 86 72 154 36 190 -27 27 -102 28
-151 1 -97 -53 -120 -56 -120 -17 0 27 49 113 122 214 42 57 61 95 65 123 3
22 3 40 1 40 -3 0 -22 7 -42 15 -20 9 -36 11 -36 5z"/>
<path d="M5440 3150 c-12 -8 -9 -10 13 -10 15 0 27 5 27 10 0 13 -20 13 -40 0z"/>
<path d="M3355 3136 c11 -7 31 -16 45 -20 19 -5 16 -2 -10 13 -40 23 -65 28
-35 7z"/>
<path d="M2785 3100 c3 -5 0 -10 -7 -10 -11 0 -256 -30 -385 -47 -24 -3 -43
-10 -43 -15 0 -6 14 -8 33 -5 17 3 114 14 215 23 148 14 194 15 246 6 121 -23
126 -10 13 33 -76 28 -81 29 -72 15z"/>
<path d="M3473 3079 c23 -13 22 -29 -8 -111 -14 -38 -23 -74 -19 -79 3 -5 20
-16 37 -25 18 -9 42 -25 54 -36 12 -11 27 -18 33 -16 10 3 59 107 75 159 4 11
-9 22 -45 38 -28 13 -56 32 -63 42 -6 10 -19 19 -29 19 -9 0 -20 5 -23 10 -3
6 -12 10 -18 10 -7 0 -4 -5 6 -11z"/>
<path d="M2870 2979 c-30 -4 -138 -16 -240 -28 -102 -12 -236 -29 -298 -38
-105 -15 -115 -19 -123 -41 -12 -30 -4 -41 14 -20 13 16 130 38 312 58 173 20
377 50 392 59 25 13 2 18 -57 10z"/>
<path d="M3194 2833 c-1 -105 0 -106 12 -60 20 77 22 161 4 165 -13 2 -15 -15
-16 -105z"/>
<path d="M3686 2894 c-4 -19 -18 -55 -32 -80 l-25 -44 27 -35 c14 -19 28 -35
29 -35 2 0 18 24 36 53 17 28 38 61 46 73 12 19 10 24 -17 55 -16 19 -30 37
-30 42 0 4 -6 7 -14 7 -8 0 -17 -15 -20 -36z"/>
<path d="M2668 2869 c-47 -4 -164 -17 -259 -29 -95 -12 -181 -19 -191 -17 -22
6 -25 -18 -2 -27 17 -7 276 19 339 34 21 5 96 14 167 21 70 7 125 16 122 21
-6 9 -52 9 -176 -3z"/>
<path d="M3410 2807 c0 -13 -13 -42 -28 -63 -37 -51 -104 -166 -99 -170 7 -7
83 21 121 44 50 31 136 111 136 127 0 6 -15 19 -32 28 -18 9 -48 26 -65 37
l-33 22 0 -25z"/>
<path d="M2655 2729 c-13 -6 -4 -7 30 -3 28 4 52 8 54 10 9 8 -65 2 -84 -7z"/>
<path d="M2530 2710 c-12 -8 -12 -10 5 -9 11 0 29 4 40 9 18 8 18 9 -5 9 -14
0 -32 -4 -40 -9z"/>
<path d="M3582 2692 c-33 -45 -128 -115 -189 -138 l-57 -21 35 -11 c61 -20
155 17 260 102 l25 21 -27 38 -27 38 -20 -29z"/>
<path d="M3911 2624 c0 -11 3 -14 6 -6 3 7 2 16 -1 19 -3 4 -6 -2 -5 -13z"/>
<path d="M2705 2598 c-141 -11 -173 -24 -53 -20 172 4 284 14 263 23 -24 9
-66 9 -210 -3z"/>
<path d="M3931 2564 c15 -57 20 -64 13 -19 -3 22 -10 44 -14 49 -5 5 -5 -8 1
-30z"/>
<path d="M2458 2563 c6 -2 18 -2 25 0 6 3 1 5 -13 5 -14 0 -19 -2 -12 -5z"/>
<path d="M5632 2468 c-7 -7 -12 -23 -12 -37 l0 -25 30 29 c29 27 31 45 6 45
-6 0 -17 -5 -24 -12z"/>
<path d="M5710 2435 c0 -34 -18 -71 -68 -140 -53 -72 -87 -138 -97 -185 -6
-29 -2 -25 24 25 17 33 49 83 71 110 75 95 92 124 98 170 4 37 2 45 -12 45
-10 0 -16 -9 -16 -25z"/>
<path d="M3888 2313 c-55 -8 -21 -83 38 -83 34 0 34 0 34 45 0 49 0 49 -72 38z"/>
<path d="M4090 2132 c0 -30 27 -52 63 -52 68 0 187 -23 187 -37 0 -7 -1 -13
-2 -13 -2 0 -50 -3 -108 -6 -58 -4 -109 -10 -114 -14 -4 -5 7 -16 25 -25 26
-14 46 -16 98 -11 92 9 138 23 144 44 2 9 8 24 12 34 5 13 0 16 -27 15 -20 0
-48 10 -71 26 -34 23 -67 33 -169 52 -34 6 -38 5 -38 -13z"/>
<path d="M3545 2110 c-3 -5 -18 -10 -33 -10 -48 0 -256 -52 -304 -76 -60 -30
-94 -67 -113 -123 -16 -48 -20 -141 -6 -141 5 0 11 -23 15 -50 11 -85 15 -87
390 -278 93 -47 128 -46 241 6 l89 41 33 -25 c65 -50 190 -72 243 -44 28 14
68 57 102 106 23 34 42 42 52 25 22 -35 226 -111 299 -111 30 0 87 49 87 75 0
15 48 103 61 111 5 3 7 9 4 14 -12 20 -37 -5 -72 -72 -21 -40 -46 -73 -58 -78
-39 -15 -157 18 -260 73 -83 45 -108 39 -184 -43 -53 -57 -72 -70 -96 -70 -46
0 -220 69 -227 90 -2 6 -38 -9 -81 -34 -43 -24 -93 -47 -112 -50 -42 -8 -90
11 -148 57 -61 49 -155 103 -212 121 -68 23 -81 34 -110 100 -38 86 -30 147
29 208 42 44 62 52 282 118 42 12 81 31 94 45 13 14 18 25 12 25 -6 0 -14 -4
-17 -10z"/>
<path d="M4680 2101 c-14 -5 -39 -6 -56 -3 -50 7 -126 -24 -169 -68 -38 -39
-38 -40 -19 -55 23 -17 130 -55 156 -55 37 0 78 31 118 90 43 64 49 85 24 94
-18 7 -20 7 -54 -3z"/>
<path d="M4010 2071 c0 -23 19 -39 57 -50 28 -8 29 -7 25 20 -3 20 -12 31 -35
38 -41 15 -47 14 -47 -8z"/>
<path d="M3835 2055 c-49 -48 -23 -73 50 -48 50 17 64 35 45 58 -19 23 -68 18
-95 -10z"/>
<path d="M3480 1969 c-119 -7 -153 -15 -211 -46 -74 -40 -88 -91 -38 -139 35
-34 65 -36 217 -17 184 24 281 113 198 182 -12 10 -20 7 -43 -19 -18 -20 -36
-31 -48 -29 -17 4 -15 8 14 35 41 39 34 41 -89 33z m-110 -118 c0 -14 -28 -33
-40 -26 -20 12 -10 35 15 35 14 0 25 -4 25 -9z"/>
<path d="M4756 1924 c-9 -8 -16 -26 -16 -39 0 -19 7 -25 33 -30 75 -14 150 31
117 70 -17 21 -114 20 -134 -1z"/>
<path d="M3837 1877 c-21 -12 -47 -38 -57 -57 -20 -39 -54 -215 -45 -230 13
-21 20 -8 17 29 -3 30 4 55 27 101 17 33 31 67 31 74 0 8 18 30 40 50 61 55
54 73 -13 33z"/>
<path d="M4390 1881 c-65 -21 -222 -98 -232 -115 -21 -31 -8 -45 61 -66 100
-30 141 -28 307 16 58 16 124 71 124 104 0 12 -15 34 -32 51 -30 26 -39 29
-103 28 -38 0 -95 -8 -125 -18z m160 -61 c0 -14 -38 -28 -81 -30 -55 -3 -57 0
-9 20 50 21 90 25 90 10z"/>
<path d="M3886 1788 c-9 -12 -14 -24 -11 -26 6 -7 24 8 35 29 15 27 -5 25 -24
-3z"/>
<path d="M4780 1776 c-54 -9 -65 -14 -68 -32 -4 -27 25 -57 47 -48 9 3 27 9
41 12 33 6 60 31 60 53 0 26 -7 27 -80 15z"/>
<path d="M3967 1748 c-8 -13 -26 -43 -40 -68 -28 -49 -54 -80 -88 -104 -30
-20 -19 -29 17 -16 36 14 73 48 85 78 9 24 29 30 29 9 0 -8 10 -22 21 -33 l22
-19 -7 64 c-3 35 -6 75 -6 87 0 30 -15 31 -33 2z"/>
<path d="M3403 1719 c-29 -22 -53 -43 -52 -47 0 -4 18 -21 39 -38 94 -75 249
-38 289 69 6 16 11 32 11 37 0 10 -82 -26 -120 -53 -13 -9 -37 -17 -52 -17
-15 0 -30 -4 -33 -10 -3 -5 -23 -10 -43 -10 -33 1 -35 2 -19 14 10 8 39 17 65
21 64 10 69 14 33 36 -17 10 -31 23 -31 29 0 21 -37 8 -87 -31z"/>
<path d="M4438 1634 c-36 -19 -35 -40 2 -59 57 -29 100 -10 100 46 0 27 -3 29
-37 29 -21 -1 -50 -8 -65 -16z"/>
<path d="M3030 1411 c0 -11 93 -72 100 -65 2 3 -4 10 -15 16 -10 6 -29 22 -41
35 -21 23 -44 31 -44 14z"/>
<path d="M3156 1325 c25 -19 40 -19 24 0 -7 8 -20 15 -28 15 -13 0 -12 -3 4
-15z"/>
<path d="M3238 1283 c7 -3 16 -2 19 1 4 3 -2 6 -13 5 -11 0 -14 -3 -6 -6z"/>
</g>
</svg>
